<svg xmlns="http://www.w3.org/2000/svg" viewBox="0 0 1668.34 367.49"><defs><style>.a90351ef-ca64-4e92-9852-137e2bd9fff6{fill:#fff;}</style></defs><g id="f70a23cc-057d-4449-8752-77390ab9276b" data-name="Layer 2"><g id="a412ca0d-9505-4d94-9bcd-7c9fc6e5359e" data-name="Layer 1"><path class="a90351ef-ca64-4e92-9852-137e2bd9fff6" d="M827.43,106.41q0-15.72-15.74-15.72H738.31c-10,0-15.73-5.77-15.73-15.73V16.25c0-10.49,5.76-15.72,15.73-15.72h268.4q15.74,0,15.72,15.72V75c0,10-5.23,15.73-15.72,15.73H933.32c-10,0-15.73,5.24-15.73,15.72v245.3c0,10-5.25,15.72-15.73,15.72H843.15c-10,0-15.72-5.76-15.72-15.72Z"/><path class="a90351ef-ca64-4e92-9852-137e2bd9fff6" d="M1274.08,0q15.74,0,15.74,15.72V74.44c0,10-5.25,15.72-15.74,15.72H1147.23c-10,0-15.73,5.25-15.73,15.73v16.77c0,10,5.77,15.73,15.73,15.73h81.25q15.74,0,15.73,15.73v58.71c0,10-5.24,15.73-15.73,15.73h-81.25c-10,0-15.73,5.24-15.73,15.72v16.77c0,10,5.77,15.74,15.73,15.74h126.85q15.74,0,15.74,15.72v58.71q0,15.72-15.74,15.73H1053.92c-10,0-15.73-5.77-15.73-15.73V15.72C1038.19,5.24,1044,0,1053.92,0Z"/><path class="a90351ef-ca64-4e92-9852-137e2bd9fff6" d="M1429.82,0c9.44,0,14.68,5.24,16.78,14.15l37.22,152.55c1,5.24,5.24,5.24,6.29,0l37.22-152.55C1529.42,5.24,1534.67,0,1544.1,0h108.52q15.72,0,15.72,15.72v335.5c0,10-5.24,15.73-15.72,15.73H1593.9c-10,0-15.72-5.77-15.72-15.73V144.68c0-3.67-4.72-4.19-5.77-.52l-50.85,209.16c-2.09,8.91-7.86,13.63-17.3,13.63h-34.59c-9.44,0-15.21-4.72-17.3-13.63l-50.85-209.16c-1-3.67-5.77-3.15-5.77.52V351.22c0,10-5.25,15.73-15.73,15.73h-58.71c-10.48,0-15.72-5.77-15.72-15.73V15.72Q1305.59,0,1321.31,0Z"/><path class="a90351ef-ca64-4e92-9852-137e2bd9fff6" d="M804.16.51H738.64C729.72.51,724,3.66,719.76,11l-43,72.87c-2.1,3.67-5.24,3.67-7.34,0L627,11C622.78,3.66,617,.51,608.11.51H469.67c-8.39,0-14.15,3.15-18.87,10L368.5,123.7c-2.63,4.19-6.3,3.14-6.3-2.09V16.24A15.72,15.72,0,0,0,346.49.51H220.85C211.94.51,206.17,3.66,202,11L159,83.86c-2.11,3.67-5.25,3.67-7.35,0L109.2,11C105,3.66,99.23.51,90.32.51h-65C12.73.51,8,8.38,14.31,19.38l89.12,151.5a6.34,6.34,0,0,1,0,7.34L2.78,348.59c-6.3,11-1.58,18.87,11,18.87h71.3c8.91,0,14.68-3.14,18.87-11l50.33-87.55c2.09-3.67,4.72-3.67,6.81,0L213,357c4.19,7.35,9.95,10.49,18.87,10.49H346.48c10.48,0,15.72-5.77,15.72-15.72V293.55a10.57,10.57,0,0,1,2.1-6.82l21.49-29.36c2.1-3.14,5.25-3.14,7.35,0l65,99.6c4.72,7.35,10.49,10.49,18.88,10.49H602.86c8.91,0,14.68-3.14,18.88-11l50.32-87.55c2.1-3.67,53-92.78,54.52-95.41L814.65,19.38C820.94,8.38,816.22.51,804.16.51ZM271,273.23a3.53,3.53,0,0,1-6.57,1.79L208.8,180.84a6.28,6.28,0,0,1,0-7.34l50.94-89.16a6,6,0,0,1,11.25,3Zm338-82.76c-6,2.5-12.31,2.81-18.71,2.79H579.4a1.73,1.73,0,0,0-1.76,1.51c-.06.45-32.37,130-32.37,130-2.13,8.52-11.72,8.94-14.16.62l-38.3-130.54a.19.19,0,0,0-.05-.16,1.78,1.78,0,0,0-1.74-1.35c-4.33.06-8.66.13-13,0-6.76-.28-13.37-1.39-18.89-5.62A20.07,20.07,0,0,1,452,177.26c-1.64-5.29-.57-10.24,1.57-14.89,2.9-6.3,6.46-12.35,9.88-18.43,5.87-10.43,11.85-20.81,17.77-31.21q9.08-15.95,18.11-31.91c5.79-10.2,11.52-20.45,17.44-30.58,3-5.12,7-9.49,12.76-12,6.24-2.65,12.1-1.72,17.56,2,5.1,3.43,8.34,8.27,11.21,13.42,5.4,9.68,10.89,19.31,16.37,29s11.12,19.51,16.69,29.27c4.08,7.14,8.19,14.27,12.26,21.42,4.67,8.2,9.42,16.35,13.88,24.65a58.25,58.25,0,0,1,3.51,9.3,13.59,13.59,0,0,1,.82,4.37C621.85,179.89,617.43,187,609,190.47Z"/></g></g></svg>